<?xml version="1.0" encoding="UTF-8" standalone="no"?>
<!DOCTYPE svg PUBLIC "-//W3C//DTD SVG 1.1//EN"
 "http://www.w3.org/Graphics/SVG/1.1/DTD/svg11.dtd">
<!-- Generated by graphviz version 2.40.1 (20161225.0304)
 -->
<!-- Title: dependencies Pages: 1 -->
<svg width="1372pt" height="360pt"
 viewBox="0.00 0.00 1372.00 360.00" xmlns="http://www.w3.org/2000/svg" xmlns:xlink="http://www.w3.org/1999/xlink">
<g id="graph0" class="graph" transform="scale(1 1) rotate(0) translate(4 356)">
<title>dependencies</title>
<polygon fill="#ffffff" stroke="transparent" points="-4,4 -4,-356 1368,-356 1368,4 -4,4"/>
<text text-anchor="start" x="661.0091" y="-42.4" font-family="sans-serif" font-weight="bold" font-size="14.00" fill="#000000">Legend</text>
<polygon fill="#ffffb3" stroke="transparent" points="448,-10 448,-30 468,-30 468,-10 448,-10"/>
<text text-anchor="start" x="471.629" y="-15.4" font-family="sans-serif" font-size="14.00" fill="#000000"> &#160;Declarations</text>
<polygon fill="#8dd3c7" stroke="transparent" points="561,-10 561,-30 581,-30 581,-10 561,-10"/>
<text text-anchor="start" x="584.7251" y="-15.4" font-family="sans-serif" font-size="14.00" fill="#000000"> &#160;Module</text>
<polygon fill="#80b1d3" stroke="transparent" points="647,-10 647,-30 667,-30 667,-10 647,-10"/>
<text text-anchor="start" x="670.7812" y="-15.4" font-family="sans-serif" font-size="14.00" fill="#000000"> &#160;Bootstrap</text>
<polygon fill="#fdb462" stroke="transparent" points="744,-10 744,-30 764,-30 764,-10 744,-10"/>
<text text-anchor="start" x="767.6732" y="-15.4" font-family="sans-serif" font-size="14.00" fill="#000000"> &#160;Providers</text>
<polygon fill="#fb8072" stroke="transparent" points="840,-10 840,-30 860,-30 860,-10 840,-10"/>
<text text-anchor="start" x="863.7258" y="-15.4" font-family="sans-serif" font-size="14.00" fill="#000000"> &#160;Exports</text>
<g id="clust1" class="cluster">
<title>cluster_AppModule</title>
<polygon fill="none" stroke="#000000" stroke-dasharray="1,5" points="534,-146 534,-344 951,-344 951,-146 534,-146"/>
</g>
<g id="clust2" class="cluster">
<title>cluster_AppModule_declarations</title>
<polygon fill="none" stroke="#000000" points="821,-154 821,-206 943,-206 943,-154 821,-154"/>
</g>
<g id="clust4" class="cluster">
<title>cluster_AppModule_imports</title>
<polygon fill="none" stroke="#000000" points="542,-154 542,-206 813,-206 813,-154 542,-154"/>
</g>
<g id="clust6" class="cluster">
<title>cluster_AppModule_bootstrap</title>
<polygon fill="none" stroke="#000000" points="679,-284 679,-336 803,-336 803,-284 679,-284"/>
</g>
<g id="clust14" class="cluster">
<title>cluster_ExplorerModule</title>
<polygon fill="none" stroke="#000000" stroke-dasharray="1,5" points="8,-70 8,-138 1258,-138 1258,-70 8,-70"/>
</g>
<g id="clust15" class="cluster">
<title>cluster_ExplorerModule_declarations</title>
<polygon fill="none" stroke="#000000" points="16,-78 16,-130 956,-130 956,-78 16,-78"/>
</g>
<g id="clust22" class="cluster">
<title>cluster_ExplorerModule_imports</title>
<polygon fill="none" stroke="#000000" points="964,-78 964,-130 1250,-130 1250,-78 964,-78"/>
</g>
<g id="clust32" class="cluster">
<title>cluster_SharedModule</title>
<polygon fill="none" stroke="#000000" stroke-dasharray="1,5" points="1028,-146 1028,-214 1356,-214 1356,-146 1028,-146"/>
</g>
<g id="clust33" class="cluster">
<title>cluster_SharedModule_declarations</title>
<polygon fill="none" stroke="#000000" points="1198,-154 1198,-206 1348,-206 1348,-154 1198,-154"/>
</g>
<g id="clust36" class="cluster">
<title>cluster_SharedModule_exports</title>
<polygon fill="none" stroke="#000000" points="1036,-154 1036,-206 1190,-206 1190,-154 1036,-154"/>
</g>
<!-- AppComponent -->
<g id="node1" class="node">
<title>AppComponent</title>
<polygon fill="#ffffb3" stroke="#000000" points="934.9399,-198 829.0601,-198 829.0601,-162 934.9399,-162 934.9399,-198"/>
<text text-anchor="middle" x="882" y="-175.8" font-family="Times,serif" font-size="14.00" fill="#000000">AppComponent</text>
</g>
<!-- AppModule -->
<g id="node2" class="node">
<title>AppModule</title>
<polygon fill="#8dd3c7" stroke="#000000" points="782.6571,-263 779.6571,-267 758.6571,-267 755.6571,-263 699.3429,-263 699.3429,-227 782.6571,-227 782.6571,-263"/>
<text text-anchor="middle" x="741" y="-240.8" font-family="Times,serif" font-size="14.00" fill="#000000">AppModule</text>
</g>
<!-- AppComponent&#45;&gt;AppModule -->
<g id="edge1" class="edge">
<title>AppComponent&#45;&gt;AppModule</title>
<path fill="none" stroke="#000000" d="M882,-198.1061C882,-217.3391 882,-245 882,-245 882,-245 792.9229,-245 792.9229,-245"/>
<polygon fill="#000000" stroke="#000000" points="792.9229,-241.5001 782.9229,-245 792.9229,-248.5001 792.9229,-241.5001"/>
</g>
<!-- AppComponent  -->
<g id="node5" class="node">
<title>AppComponent </title>
<polygon fill="#80b1d3" stroke="#000000" points="795.439,-328 686.561,-328 686.561,-292 795.439,-292 795.439,-328"/>
<text text-anchor="middle" x="741" y="-305.8" font-family="Times,serif" font-size="14.00" fill="#000000">AppComponent </text>
</g>
<!-- AppModule&#45;&gt;AppComponent  -->
<g id="edge4" class="edge">
<title>AppModule&#45;&gt;AppComponent </title>
<path fill="none" stroke="#000000" stroke-dasharray="1,5" d="M741,-263.1061C741,-263.1061 741,-281.991 741,-281.991"/>
<polygon fill="#000000" stroke="#000000" points="737.5001,-281.9909 741,-291.991 744.5001,-281.991 737.5001,-281.9909"/>
</g>
<!-- AppRoutingModule -->
<g id="node3" class="node">
<title>AppRoutingModule</title>
<polygon fill="#8dd3c7" stroke="#000000" points="805.2744,-198 802.2744,-202 781.2744,-202 778.2744,-198 676.7256,-198 676.7256,-162 805.2744,-162 805.2744,-198"/>
<text text-anchor="middle" x="741" y="-175.8" font-family="Times,serif" font-size="14.00" fill="#000000">AppRoutingModule</text>
</g>
<!-- AppRoutingModule&#45;&gt;AppModule -->
<g id="edge2" class="edge">
<title>AppRoutingModule&#45;&gt;AppModule</title>
<path fill="none" stroke="#000000" d="M741,-198.1061C741,-198.1061 741,-216.991 741,-216.991"/>
<polygon fill="#000000" stroke="#000000" points="737.5001,-216.9909 741,-226.991 744.5001,-216.991 737.5001,-216.9909"/>
</g>
<!-- ExplorerModule -->
<g id="node4" class="node">
<title>ExplorerModule</title>
<polygon fill="#8dd3c7" stroke="#000000" points="658.0298,-198 655.0298,-202 634.0298,-202 631.0298,-198 549.9702,-198 549.9702,-162 658.0298,-162 658.0298,-198"/>
<text text-anchor="middle" x="604" y="-175.8" font-family="Times,serif" font-size="14.00" fill="#000000">ExplorerModule</text>
</g>
<!-- ExplorerModule&#45;&gt;AppModule -->
<g id="edge3" class="edge">
<title>ExplorerModule&#45;&gt;AppModule</title>
<path fill="none" stroke="#000000" d="M604,-198.1061C604,-217.3391 604,-245 604,-245 604,-245 689.1511,-245 689.1511,-245"/>
<polygon fill="#000000" stroke="#000000" points="689.1511,-248.5001 699.1511,-245 689.151,-241.5001 689.1511,-248.5001"/>
</g>
<!-- BreadcrumbsComponent -->
<g id="node6" class="node">
<title>BreadcrumbsComponent</title>
<polygon fill="#ffffb3" stroke="#000000" points="947.9692,-122 792.0308,-122 792.0308,-86 947.9692,-86 947.9692,-122"/>
<text text-anchor="middle" x="870" y="-99.8" font-family="Times,serif" font-size="14.00" fill="#000000">BreadcrumbsComponent</text>
</g>
<!-- BreadcrumbsComponent&#45;&gt;ExplorerModule -->
<g id="edge5" class="edge">
<title>BreadcrumbsComponent&#45;&gt;ExplorerModule</title>
<path fill="none" stroke="#000000" d="M798.7013,-122.207C798.7013,-127.5549 798.7013,-132 798.7013,-132 798.7013,-132 634.3414,-132 634.3414,-132 634.3414,-132 634.3414,-151.8533 634.3414,-151.8533"/>
<polygon fill="#000000" stroke="#000000" points="630.8415,-151.8532 634.3414,-161.8533 637.8415,-151.8533 630.8415,-151.8532"/>
</g>
<!-- EmptyFolderComponent -->
<g id="node7" class="node">
<title>EmptyFolderComponent</title>
<polygon fill="#ffffb3" stroke="#000000" points="773.7147,-122 618.2853,-122 618.2853,-86 773.7147,-86 773.7147,-122"/>
<text text-anchor="middle" x="696" y="-99.8" font-family="Times,serif" font-size="14.00" fill="#000000">EmptyFolderComponent</text>
</g>
<!-- EmptyFolderComponent&#45;&gt;ExplorerModule -->
<g id="edge6" class="edge">
<title>EmptyFolderComponent&#45;&gt;ExplorerModule</title>
<path fill="none" stroke="#000000" d="M626.367,-122.0109C626.367,-122.0109 626.367,-151.855 626.367,-151.855"/>
<polygon fill="#000000" stroke="#000000" points="622.8671,-151.8549 626.367,-161.855 629.8671,-151.855 622.8671,-151.8549"/>
</g>
<!-- ExplorerComponent -->
<g id="node8" class="node">
<title>ExplorerComponent</title>
<polygon fill="#ffffb3" stroke="#000000" points="600.3118,-122 469.6882,-122 469.6882,-86 600.3118,-86 600.3118,-122"/>
<text text-anchor="middle" x="535" y="-99.8" font-family="Times,serif" font-size="14.00" fill="#000000">ExplorerComponent</text>
</g>
<!-- ExplorerComponent&#45;&gt;ExplorerModule -->
<g id="edge7" class="edge">
<title>ExplorerComponent&#45;&gt;ExplorerModule</title>
<path fill="none" stroke="#000000" d="M574.9457,-122.0109C574.9457,-122.0109 574.9457,-151.855 574.9457,-151.855"/>
<polygon fill="#000000" stroke="#000000" points="571.4457,-151.8549 574.9457,-161.855 578.4457,-151.855 571.4457,-151.8549"/>
</g>
<!-- FileGridComponent -->
<g id="node9" class="node">
<title>FileGridComponent</title>
<polygon fill="#ffffb3" stroke="#000000" points="451.2688,-122 322.7312,-122 322.7312,-86 451.2688,-86 451.2688,-122"/>
<text text-anchor="middle" x="387" y="-99.8" font-family="Times,serif" font-size="14.00" fill="#000000">FileGridComponent</text>
</g>
<!-- FileGridComponent&#45;&gt;ExplorerModule -->
<g id="edge8" class="edge">
<title>FileGridComponent&#45;&gt;ExplorerModule</title>
<path fill="none" stroke="#000000" d="M387,-122.308C387,-142.1455 387,-171 387,-171 387,-171 539.8015,-171 539.8015,-171"/>
<polygon fill="#000000" stroke="#000000" points="539.8015,-174.5001 549.8015,-171 539.8015,-167.5001 539.8015,-174.5001"/>
</g>
<!-- GridItemComponent -->
<g id="node10" class="node">
<title>GridItemComponent</title>
<polygon fill="#ffffb3" stroke="#000000" points="304.1471,-122 171.8529,-122 171.8529,-86 304.1471,-86 304.1471,-122"/>
<text text-anchor="middle" x="238" y="-99.8" font-family="Times,serif" font-size="14.00" fill="#000000">GridItemComponent</text>
</g>
<!-- GridItemComponent&#45;&gt;ExplorerModule -->
<g id="edge9" class="edge">
<title>GridItemComponent&#45;&gt;ExplorerModule</title>
<path fill="none" stroke="#000000" d="M238,-122.0109C238,-144.4852 238,-180 238,-180 238,-180 539.6013,-180 539.6013,-180"/>
<polygon fill="#000000" stroke="#000000" points="539.6013,-183.5001 549.6013,-180 539.6013,-176.5001 539.6013,-183.5001"/>
</g>
<!-- WindowComponent -->
<g id="node11" class="node">
<title>WindowComponent</title>
<polygon fill="#ffffb3" stroke="#000000" points="153.545,-122 24.455,-122 24.455,-86 153.545,-86 153.545,-122"/>
<text text-anchor="middle" x="89" y="-99.8" font-family="Times,serif" font-size="14.00" fill="#000000">WindowComponent</text>
</g>
<!-- WindowComponent&#45;&gt;ExplorerModule -->
<g id="edge10" class="edge">
<title>WindowComponent&#45;&gt;ExplorerModule</title>
<path fill="none" stroke="#000000" d="M89,-122.0263C89,-146.9773 89,-189 89,-189 89,-189 539.8594,-189 539.8594,-189"/>
<polygon fill="#000000" stroke="#000000" points="539.8594,-192.5001 549.8594,-189 539.8593,-185.5001 539.8594,-192.5001"/>
</g>
<!-- ExplorerRoutingModule -->
<g id="node12" class="node">
<title>ExplorerRoutingModule</title>
<polygon fill="#8dd3c7" stroke="#000000" points="1125.647,-122 1122.647,-126 1101.647,-126 1098.647,-122 972.353,-122 972.353,-86 1125.647,-86 1125.647,-122"/>
<text text-anchor="middle" x="1049" y="-99.8" font-family="Times,serif" font-size="14.00" fill="#000000">ExplorerRoutingModule</text>
</g>
<!-- ExplorerRoutingModule&#45;&gt;ExplorerModule -->
<g id="edge11" class="edge">
<title>ExplorerRoutingModule&#45;&gt;ExplorerModule</title>
<path fill="none" stroke="#000000" d="M1007.9662,-122.1097C1007.9662,-131.897 1007.9662,-142 1007.9662,-142 1007.9662,-142 642.3157,-142 642.3157,-142 642.3157,-142 642.3157,-151.8903 642.3157,-151.8903"/>
<polygon fill="#000000" stroke="#000000" points="638.8158,-151.8903 642.3157,-161.8903 645.8158,-151.8904 638.8158,-151.8903"/>
</g>
<!-- SharedModule -->
<g id="node13" class="node">
<title>SharedModule</title>
<polygon fill="#8dd3c7" stroke="#000000" points="1242.4231,-122 1239.4231,-126 1218.4231,-126 1215.4231,-122 1143.5769,-122 1143.5769,-86 1242.4231,-86 1242.4231,-122"/>
<text text-anchor="middle" x="1193" y="-99.8" font-family="Times,serif" font-size="14.00" fill="#000000">SharedModule</text>
</g>
<!-- SharedModule&#45;&gt;ExplorerModule -->
<g id="edge12" class="edge">
<title>SharedModule&#45;&gt;ExplorerModule</title>
<path fill="none" stroke="#000000" d="M1156.6074,-122.1467C1156.6074,-135.7395 1156.6074,-152 1156.6074,-152 1156.6074,-152 650.2901,-152 650.2901,-152 650.2901,-152 650.2901,-152.9793 650.2901,-152.9793"/>
<polygon fill="#000000" stroke="#000000" points="646.7902,-151.793 650.2901,-161.793 653.7902,-151.7931 646.7902,-151.793"/>
</g>
<!-- NgModalComponent  -->
<g id="node15" class="node">
<title>NgModalComponent </title>
<polygon fill="#fb8072" stroke="#000000" points="1182.4897,-198 1043.5103,-198 1043.5103,-162 1182.4897,-162 1182.4897,-198"/>
<text text-anchor="middle" x="1113" y="-175.8" font-family="Times,serif" font-size="14.00" fill="#000000">NgModalComponent </text>
</g>
<!-- SharedModule&#45;&gt;NgModalComponent  -->
<g id="edge14" class="edge">
<title>SharedModule&#45;&gt;NgModalComponent </title>
<path fill="none" stroke="#000000" stroke-dasharray="5,2" d="M1169.4259,-122.0109C1169.4259,-122.0109 1169.4259,-151.855 1169.4259,-151.855"/>
<polygon fill="#000000" stroke="#000000" points="1165.926,-151.8549 1169.4259,-161.855 1172.926,-151.855 1165.926,-151.8549"/>
</g>
<!-- NgModalComponent -->
<g id="node14" class="node">
<title>NgModalComponent</title>
<polygon fill="#ffffb3" stroke="#000000" points="1340.4888,-198 1205.5112,-198 1205.5112,-162 1340.4888,-162 1340.4888,-198"/>
<text text-anchor="middle" x="1273" y="-175.8" font-family="Times,serif" font-size="14.00" fill="#000000">NgModalComponent</text>
</g>
<!-- NgModalComponent&#45;&gt;SharedModule -->
<g id="edge13" class="edge">
<title>NgModalComponent&#45;&gt;SharedModule</title>
<path fill="none" stroke="#000000" d="M1223.8584,-161.9891C1223.8584,-161.9891 1223.8584,-132.145 1223.8584,-132.145"/>
<polygon fill="#000000" stroke="#000000" points="1227.3584,-132.145 1223.8584,-122.145 1220.3584,-132.1451 1227.3584,-132.145"/>
</g>
</g>
</svg>
