<?xml version="1.0" encoding="UTF-8" standalone="no"?>
<!DOCTYPE svg PUBLIC "-//W3C//DTD SVG 1.1//EN"
 "http://www.w3.org/Graphics/SVG/1.1/DTD/svg11.dtd">
<!-- Generated by graphviz version 2.40.1 (20161225.0304)
 -->
<!-- Title: dependencies Pages: 1 -->
<svg width="1274pt" height="211pt"
 viewBox="0.00 0.00 1274.00 211.00" xmlns="http://www.w3.org/2000/svg" xmlns:xlink="http://www.w3.org/1999/xlink">
<g id="graph0" class="graph" transform="scale(1 1) rotate(0) translate(4 207)">
<title>dependencies</title>
<polygon fill="#ffffff" stroke="transparent" points="-4,4 -4,-207 1270,-207 1270,4 -4,4"/>
<text text-anchor="start" x="612.0091" y="-42.4" font-family="sans-serif" font-weight="bold" font-size="14.00" fill="#000000">Legend</text>
<polygon fill="#ffffb3" stroke="transparent" points="399,-10 399,-30 419,-30 419,-10 399,-10"/>
<text text-anchor="start" x="422.629" y="-15.4" font-family="sans-serif" font-size="14.00" fill="#000000"> &#160;Declarations</text>
<polygon fill="#8dd3c7" stroke="transparent" points="512,-10 512,-30 532,-30 532,-10 512,-10"/>
<text text-anchor="start" x="535.7251" y="-15.4" font-family="sans-serif" font-size="14.00" fill="#000000"> &#160;Module</text>
<polygon fill="#80b1d3" stroke="transparent" points="598,-10 598,-30 618,-30 618,-10 598,-10"/>
<text text-anchor="start" x="621.7812" y="-15.4" font-family="sans-serif" font-size="14.00" fill="#000000"> &#160;Bootstrap</text>
<polygon fill="#fdb462" stroke="transparent" points="695,-10 695,-30 715,-30 715,-10 695,-10"/>
<text text-anchor="start" x="718.6732" y="-15.4" font-family="sans-serif" font-size="14.00" fill="#000000"> &#160;Providers</text>
<polygon fill="#fb8072" stroke="transparent" points="791,-10 791,-30 811,-30 811,-10 791,-10"/>
<text text-anchor="start" x="814.7258" y="-15.4" font-family="sans-serif" font-size="14.00" fill="#000000"> &#160;Exports</text>
<g id="clust1" class="cluster">
<title>cluster_ExplorerModule</title>
<polygon fill="none" stroke="#000000" stroke-dasharray="1,5" points="8,-70 8,-195 1258,-195 1258,-70 8,-70"/>
</g>
<g id="clust2" class="cluster">
<title>cluster_ExplorerModule_declarations</title>
<polygon fill="none" stroke="#000000" points="310,-78 310,-130 1250,-130 1250,-78 310,-78"/>
</g>
<g id="clust9" class="cluster">
<title>cluster_ExplorerModule_imports</title>
<polygon fill="none" stroke="#000000" points="16,-78 16,-130 302,-130 302,-78 16,-78"/>
</g>
<!-- BreadcrumbsComponent -->
<g id="node1" class="node">
<title>BreadcrumbsComponent</title>
<polygon fill="#ffffb3" stroke="#000000" points="1241.9692,-122 1086.0308,-122 1086.0308,-86 1241.9692,-86 1241.9692,-122"/>
<text text-anchor="middle" x="1164" y="-99.8" font-family="Times,serif" font-size="14.00" fill="#000000">BreadcrumbsComponent</text>
</g>
<!-- ExplorerModule -->
<g id="node7" class="node">
<title>ExplorerModule</title>
<polygon fill="#8dd3c7" stroke="#000000" points="660.0298,-187 657.0298,-191 636.0298,-191 633.0298,-187 551.9702,-187 551.9702,-151 660.0298,-151 660.0298,-187"/>
<text text-anchor="middle" x="606" y="-164.8" font-family="Times,serif" font-size="14.00" fill="#000000">ExplorerModule</text>
</g>
<!-- BreadcrumbsComponent&#45;&gt;ExplorerModule -->
<g id="edge1" class="edge">
<title>BreadcrumbsComponent&#45;&gt;ExplorerModule</title>
<path fill="none" stroke="#000000" d="M1164,-122.2921C1164,-144.2057 1164,-178 1164,-178 1164,-178 670.2646,-178 670.2646,-178"/>
<polygon fill="#000000" stroke="#000000" points="670.2647,-174.5001 660.2646,-178 670.2646,-181.5001 670.2647,-174.5001"/>
</g>
<!-- EmptyFolderComponent -->
<g id="node2" class="node">
<title>EmptyFolderComponent</title>
<polygon fill="#ffffb3" stroke="#000000" points="1067.7147,-122 912.2853,-122 912.2853,-86 1067.7147,-86 1067.7147,-122"/>
<text text-anchor="middle" x="990" y="-99.8" font-family="Times,serif" font-size="14.00" fill="#000000">EmptyFolderComponent</text>
</g>
<!-- EmptyFolderComponent&#45;&gt;ExplorerModule -->
<g id="edge2" class="edge">
<title>EmptyFolderComponent&#45;&gt;ExplorerModule</title>
<path fill="none" stroke="#000000" d="M990,-122.1061C990,-141.3391 990,-169 990,-169 990,-169 670.2034,-169 670.2034,-169"/>
<polygon fill="#000000" stroke="#000000" points="670.2034,-165.5001 660.2034,-169 670.2033,-172.5001 670.2034,-165.5001"/>
</g>
<!-- ExplorerComponent -->
<g id="node3" class="node">
<title>ExplorerComponent</title>
<polygon fill="#ffffb3" stroke="#000000" points="894.3118,-122 763.6882,-122 763.6882,-86 894.3118,-86 894.3118,-122"/>
<text text-anchor="middle" x="829" y="-99.8" font-family="Times,serif" font-size="14.00" fill="#000000">ExplorerComponent</text>
</g>
<!-- ExplorerComponent&#45;&gt;ExplorerModule -->
<g id="edge3" class="edge">
<title>ExplorerComponent&#45;&gt;ExplorerModule</title>
<path fill="none" stroke="#000000" d="M829,-122.027C829,-138.3976 829,-160 829,-160 829,-160 670.2668,-160 670.2668,-160"/>
<polygon fill="#000000" stroke="#000000" points="670.2668,-156.5001 660.2668,-160 670.2667,-163.5001 670.2668,-156.5001"/>
</g>
<!-- FileGridComponent -->
<g id="node4" class="node">
<title>FileGridComponent</title>
<polygon fill="#ffffb3" stroke="#000000" points="745.2688,-122 616.7312,-122 616.7312,-86 745.2688,-86 745.2688,-122"/>
<text text-anchor="middle" x="681" y="-99.8" font-family="Times,serif" font-size="14.00" fill="#000000">FileGridComponent</text>
</g>
<!-- FileGridComponent&#45;&gt;ExplorerModule -->
<g id="edge4" class="edge">
<title>FileGridComponent&#45;&gt;ExplorerModule</title>
<path fill="none" stroke="#000000" d="M638.4401,-122.1061C638.4401,-122.1061 638.4401,-140.991 638.4401,-140.991"/>
<polygon fill="#000000" stroke="#000000" points="634.9401,-140.9909 638.4401,-150.991 641.9401,-140.991 634.9401,-140.9909"/>
</g>
<!-- GridItemComponent -->
<g id="node5" class="node">
<title>GridItemComponent</title>
<polygon fill="#ffffb3" stroke="#000000" points="598.1471,-122 465.8529,-122 465.8529,-86 598.1471,-86 598.1471,-122"/>
<text text-anchor="middle" x="532" y="-99.8" font-family="Times,serif" font-size="14.00" fill="#000000">GridItemComponent</text>
</g>
<!-- GridItemComponent&#45;&gt;ExplorerModule -->
<g id="edge5" class="edge">
<title>GridItemComponent&#45;&gt;ExplorerModule</title>
<path fill="none" stroke="#000000" d="M575.0295,-122.1061C575.0295,-122.1061 575.0295,-140.991 575.0295,-140.991"/>
<polygon fill="#000000" stroke="#000000" points="571.5295,-140.9909 575.0295,-150.991 578.5295,-140.991 571.5295,-140.9909"/>
</g>
<!-- WindowComponent -->
<g id="node6" class="node">
<title>WindowComponent</title>
<polygon fill="#ffffb3" stroke="#000000" points="447.545,-122 318.455,-122 318.455,-86 447.545,-86 447.545,-122"/>
<text text-anchor="middle" x="383" y="-99.8" font-family="Times,serif" font-size="14.00" fill="#000000">WindowComponent</text>
</g>
<!-- WindowComponent&#45;&gt;ExplorerModule -->
<g id="edge6" class="edge">
<title>WindowComponent&#45;&gt;ExplorerModule</title>
<path fill="none" stroke="#000000" d="M383,-122.027C383,-138.3976 383,-160 383,-160 383,-160 541.7332,-160 541.7332,-160"/>
<polygon fill="#000000" stroke="#000000" points="541.7333,-163.5001 551.7332,-160 541.7332,-156.5001 541.7333,-163.5001"/>
</g>
<!-- ExplorerRoutingModule -->
<g id="node8" class="node">
<title>ExplorerRoutingModule</title>
<polygon fill="#8dd3c7" stroke="#000000" points="293.647,-122 290.647,-126 269.647,-126 266.647,-122 140.353,-122 140.353,-86 293.647,-86 293.647,-122"/>
<text text-anchor="middle" x="217" y="-99.8" font-family="Times,serif" font-size="14.00" fill="#000000">ExplorerRoutingModule</text>
</g>
<!-- ExplorerRoutingModule&#45;&gt;ExplorerModule -->
<g id="edge7" class="edge">
<title>ExplorerRoutingModule&#45;&gt;ExplorerModule</title>
<path fill="none" stroke="#000000" d="M217,-122.1061C217,-141.3391 217,-169 217,-169 217,-169 541.9112,-169 541.9112,-169"/>
<polygon fill="#000000" stroke="#000000" points="541.9113,-172.5001 551.9112,-169 541.9112,-165.5001 541.9113,-172.5001"/>
</g>
<!-- SharedModule -->
<g id="node9" class="node">
<title>SharedModule</title>
<polygon fill="#8dd3c7" stroke="#000000" points="122.4231,-122 119.4231,-126 98.4231,-126 95.4231,-122 23.5769,-122 23.5769,-86 122.4231,-86 122.4231,-122"/>
<text text-anchor="middle" x="73" y="-99.8" font-family="Times,serif" font-size="14.00" fill="#000000">SharedModule</text>
</g>
<!-- SharedModule&#45;&gt;ExplorerModule -->
<g id="edge8" class="edge">
<title>SharedModule&#45;&gt;ExplorerModule</title>
<path fill="none" stroke="#000000" d="M73,-122.2921C73,-144.2057 73,-178 73,-178 73,-178 541.9599,-178 541.9599,-178"/>
<polygon fill="#000000" stroke="#000000" points="541.96,-181.5001 551.9599,-178 541.9599,-174.5001 541.96,-181.5001"/>
</g>
</g>
</svg>
